<svg width="11" height="11" viewBox="0 0 11 11" fill="none" xmlns="http://www.w3.org/2000/svg">
<g clip-path="url(#clip0_31_373)">
<path d="M6.5625 0.4375H1.75C1.26875 0.4375 0.875 0.83125 0.875 1.3125V7C0.875 7.24062 1.07187 7.4375 1.3125 7.4375C1.55313 7.4375 1.75 7.24062 1.75 7V1.75C1.75 1.50937 1.94687 1.3125 2.1875 1.3125H6.5625C6.80312 1.3125 7 1.11563 7 0.875C7 0.634375 6.80312 0.4375 6.5625 0.4375ZM6.82063 2.44563L8.93375 4.55875C9.09562 4.72062 9.1875 4.94375 9.1875 5.17562V9.1875C9.1875 9.66875 8.79375 10.0625 8.3125 10.0625H3.49563C3.01437 10.0625 2.625 9.66875 2.625 9.1875L2.62938 3.0625C2.62938 2.58125 3.01875 2.1875 3.5 2.1875H6.19938C6.43125 2.1875 6.65438 2.27938 6.82063 2.44563ZM6.5625 5.25H8.53125L6.125 2.84375V4.8125C6.125 5.05312 6.32188 5.25 6.5625 5.25Z" fill="black"/>
</g>
<defs>
<clipPath id="clip0_31_373">
<rect width="10.5" height="10.5" fill="white"/>
</clipPath>
</defs>
</svg>
