<svg width="11" height="11" viewBox="0 0 11 11" fill="none" xmlns="http://www.w3.org/2000/svg">
<g clip-path="url(#clip0_28_360)">
<path d="M8.75 1.75H1.75C1.26875 1.75 0.875 2.14375 0.875 2.625V7.875C0.875 8.35625 1.26875 8.75 1.75 8.75H8.75C9.23125 8.75 9.625 8.35625 9.625 7.875V2.625C9.625 2.14375 9.23125 1.75 8.75 1.75ZM8.575 3.60938L5.71375 5.39875C5.42938 5.57812 5.07062 5.57812 4.78625 5.39875L1.925 3.60938C1.81563 3.53937 1.75 3.42125 1.75 3.29438C1.75 3.00125 2.06938 2.82625 2.31875 2.97938L5.25 4.8125L8.18125 2.97938C8.43063 2.82625 8.75 3.00125 8.75 3.29438C8.75 3.42125 8.68438 3.53937 8.575 3.60938Z" fill="black"/>
</g>
<defs>
<clipPath id="clip0_28_360">
<rect width="10.5" height="10.5" fill="white"/>
</clipPath>
</defs>
</svg>
