<svg width="188" height="187" viewBox="0 0 188 187" fill="none" xmlns="http://www.w3.org/2000/svg">
<path d="M117 35C107.074 36.3816 101.05 36.7075 89.4999 36.5C88.9999 38 87.9999 40.5 88.9999 42L87.9999 44L85.9999 45C85.163 47.722 84.4999 52 84.9999 52.5C84.9999 52.5 83.4999 52 83.4999 50.5C82.1383 48.6792 81.3652 47.9618 79.9999 46C79.9999 46 79.8044 45.8046 79.4999 45.6729M117 35C117 35 118.5 37 118 38.5C119 40 119 42 119 42C121.5 43 120.5 49 120.5 50.5L120.367 51.5M117 35C117 33.6667 116.8 30.4 116 28C115.2 25.6 110 24.3333 107.5 24C107.5 26.1667 108.067 31.5652 110.337 35.8259C110.671 36.3259 111.221 36.8963 111 38C110.833 38.8334 110 40 109.5 40.5C109 41 108.7 42 109.5 42L111.5 46C111.333 46.5 111 47.6 111 48C111 48.4 111.333 49.1667 111.5 49.5M102 53H103.5L104.5 52V51.5L103.5 52L91.9999 46H91.4999L97.4999 50.5L99.8824 51.8236M102 53L99.8824 51.8236M102 53H101V54.5M111.5 49.5L109.5 51.5V53H109L108.5 51.5L108 52L109 53.5L108.5 54V55.5C109.923 54.867 112.456 55.6527 113 57C113.5 58 113.5 60.5 113.5 61.5C113.5 62.3 113.833 62.8334 114 63C114.167 63.1667 114.7 63.3 115.5 62.5C116 62 116.5 59.5 116.5 59C116.5 58.5 117.5 57.5 118 57.5C118.4 57.5 118.833 56.5 119 56L117 52.5L117.237 50.8404M111.5 49.5L113.5 48L115.5 45.5L116 46C114.374 48.033 113.023 49.7215 112 51M86.4999 55L90.9999 60M87.9999 57.5L90.9999 61.5M88.4999 59.5L91.9999 64M118.907 41L117.5 43.5C117.833 44.5 118.4 46.7 118 47.5C117.6 48.3 117.5 48.8334 117.5 49M117.5 49L117.237 50.8404M117.5 49L114.148 50.2188M79.4999 45.6729C79.1157 45.5067 78.5578 45.4422 77.9999 46C76.9998 46.7679 76.9999 53 76.9999 53L81.4999 61H84.9999L88.9999 69C94.272 73.2958 97.4999 77.0001 102 80.0001L109.5 79.5001C113.573 74.2627 115.524 71.1895 118.5 65.5L120.367 51.5M79.4999 45.6729C79.0999 43.1346 78.9999 37.8334 78.9999 35.5L80.9999 33.5L81.4999 30.5L83.4999 28L86.9999 25.5C85.9999 25.1667 83.9999 24.2 83.9999 23C83.9999 21.8 83.9999 20.5 83.9999 20L85.756 18.2439L84.9999 15.5L85.756 13.5L88.4999 11.5H89.9999C90.4262 9.85506 90.9398 9.07101 92.4999 8C93.4999 7.5 93.9999 7 94.9999 7.5C95.5286 7.66154 95.7622 8.35326 95.9999 9C95.8047 9.58578 95.6952 9.91421 95.4999 10.5L94.9999 11.5H94.4999C93.9999 10.5 93.7804 9.24129 92.9999 10C92.5406 10.6618 92.0856 12.1947 91.9999 13C91.4999 14 92.4999 15.3333 92.9999 16C93.7726 14.3172 94.4077 14.017 95.9999 15L97.4999 17.5C98.6627 16.046 98.8299 15.1636 98.4999 13.5C98.3332 13.8333 97.8999 14.4 97.4999 14C97.0999 13.6 96.9999 13.5 96.9999 13.5C96.9999 13.5 96.9999 13 96.9999 11.5C96.9999 10 96.9999 10 97.9999 9H98.9999C99.9999 9.5 99.9999 10 100.5 11V15.5L102 11.5C101.833 10 101.4 7.2 101 8C100.6 8.8 99.4999 8.33333 98.9999 8C98.8332 7.66666 98.6999 6.9 99.4999 6.5C100.3 6.1 101.5 5.66667 102 5.5C102.5 6 103.5 7.3 103.5 8.5C103.5 9.7 103.5 11.6667 103.5 12.5L105.5 11.5C107.086 12.2064 107.501 12.9801 107.5 15V17L109.5 18.5L110 19.5L110.5 22L116 25.5C118.717 27.8355 120.241 30.6002 123 38M123 38L122 49M123 38L121 35L120 35.5C120.167 36 120.4 37.4 120 39C119.5 41 119 41 119.5 41.5C120 42 121 43 121 44C121 45 121 49 121.5 49M122 49C122.333 49.3334 123 50.2 123 51M122 49L121.5 49M120.367 51.5L121.5 49M123 51C123 51.8 121.244 57 120.367 59.5C120 60.5 119.419 60.2079 119.259 59.8079L120.367 53.5L121.5 51C121.5 51 122.109 50.3905 122.5 50L123 51ZM117.237 50.8404L115.5 53.5L113 54.5L111.5 55L113.5 55.5C112.333 55.3334 110 54.9 110 54.5C110 54.1 110 53.6667 110 53.5C110.328 53.0902 111.01 52.237 112 51M112 51L114.148 50.2188M114.148 50.2188L112 52L111 54C111.135 54.269 113.155 53.8879 114.148 53.6638C114.599 53.2759 115.7 52.2 116.5 51M114.148 50.2188L116.5 49.5H117C117.167 49.5 117.3 49.8 116.5 51M116.5 51V50.5L113 52M113 52C113.5 52.5 113.477 52.8328 113.477 52.8328C113.077 53.2328 112.977 53.3328 112.977 53.3328L112 52.5C112 52.3334 112.5 52 113 52ZM104.25 53.25L104 53C104.4 53.4 104.833 52.1667 105 51.5L103.5 48C103.5 47.5 103.4 46.2 103 45C102.6 43.8 102.833 43.1667 103 43L105 47C104.6 47 104.833 47.3334 105 47.5C105.4 47.9 105.5 48.6667 105.5 49C105.5 49 105.4 49.3 105 50.5L105.5 51.5V52.5L104.5 53.5L104.25 53.25ZM104.25 53.25L104 53.5C104.5 54 105.3 55 104.5 55C103.7 55 102.833 55.3333 102.5 55.5L97.4999 57.5L97.9999 56.5L99.9999 55H94.9999L92.4999 52.8328V52.5L92.9999 52.5M92.9999 52.5L94.4999 54L96.4999 54.5H101M92.9999 52.5L92.7415 51.8236L92.9999 51.5C93.4999 51.6079 94.5999 51.8589 94.9999 52C95.3999 52.1412 96.1666 52.0217 96.4999 51.9443M101 54.5L100.85 54M99.8824 51.8236L97.4999 51.5L93.9999 51L92.9999 50.5L92.4999 51L94.4999 51.5L96.4999 51.9443M96.4999 51.9443L96.6927 51.9871M100.85 54L100.5 52.8328L96.6927 51.9871M100.85 54C99.8376 53.6344 97.7503 52.8225 97.4999 52.5C97.2495 52.1775 96.8574 52.0237 96.6927 51.9871M98.9999 68L94.4999 67L93.9999 67.5C94.3332 67.6667 95.2999 68.1 96.4999 68.5C97.6999 68.9 99.3332 71 99.9999 72C100.333 72.3333 101.8 73 105 73C108.2 73 110 72.3333 110.5 72L114.5 66L113 67L112.5 67.0357M98.9999 68L97.4999 68.5L98.2999 69.5M98.9999 68L112.5 67.0357M103 75C104 76 106.195 76.1901 107.5 76C109 75.5 109.367 74.4704 109.5 74C107 75 106 75 103.5 75C103.1 75 102.667 75 102.5 75M112.5 67.0357V68.5C112.5 68.6667 112.4 69 112 69C111.6 69 110.833 69 110.5 69L109 70L111.5 69.5V70C111.397 70.2257 111.052 70.8416 110.5 71.5C109.809 72.323 106 73 103.5 72.5C101.5 72.1 99.9999 71.3333 99.4999 71M99.4999 71L98.2999 69.5M99.4999 71C100.167 71.3333 101.5 71.9 101.5 71.5C101.5 71.1 100.833 70.6667 100.5 70.5C101.333 70.6667 103.1 71 103.5 71C103.9 71 104 70.3333 104 70C103.833 69.8333 103.5 69.6 103.5 70C103.5 70.4 102.833 70.5 102.5 70.5C102.167 70.3333 101.3 70 100.5 70C99.6999 70 98.6999 69.6667 98.2999 69.5M106 64L105.975 63.9833M105.975 63.9833C105.975 63.9833 105.191 62.9526 104.5 63C104.064 63.0299 103.5 63.5 103.5 63.5C103.5 63.5 103.5 63.5 104.5 64L105.975 63.9833ZM175.5 56.5C173.667 58.8333 169.8 63.6 169 64C168.2 64.4 168.333 63.8333 168.5 63.5L171.5 60C171.333 60.1667 170.4 60.6 168 61C166.8 61 165.833 61.6667 165.5 62C165.5 62.1667 165.5 62.9 165.5 64.5C165.1 64.9 165 64.6667 165 64.5L164 57L164.5 52L161.5 47.5C160.5 47 158.3 46 157.5 46C156.5 46 156.5 46 156 46.5C155.6 46.9 156.167 47.3333 156.5 47.5L159.5 49L160.5 52.5H160L158.5 49L156.5 48L156 48.5L157 51L156.5 52L157 58L154 64.5L156.5 75.5V77L156 78.5C157.635 80.6149 158.161 81.8174 158.5 84C157.026 88.3912 152.387 97.3071 149.5 99.5C146.797 101.553 141.833 104.5 139.5 105.5L130.5 113.5L127.103 121.312M175.5 56.5C176.5 55.5 178.8 53.4 180 53C180.311 52.8962 180.562 52.8127 180.763 52.7458M175.5 56.5C174.7 56.5 174.5 56.1667 174.5 56L175 53H175.5L176 54.25M175.5 56.5L176.5 55.5L176 54.25M186 48V58.5M186 48L183.75 50.25M186 48L184 46L183 50L183.75 50.25M186 58.5L184 62.5L183.5 67M186 58.5V69.5L185 71.3889M181.5 78L185 71.3889M185 71.3889C185.667 72.0926 186.7 73.8 185.5 75C184.3 76.2 180.667 82.8333 179 86C179.333 86.8333 179.6 89.1 178 91.5C174 98.3 168.667 107.333 166.5 111M166.5 111L156 126.5L150.5 136.5L157 126.5L165.5 114.4M166.5 111L165.5 114.4M116.5 134.5L114.5 137.5L116.5 141.5L114.5 145L115 153L132.5 156C135 156.667 140.5 157.8 142.5 157C143.3 156.2 145.833 152.667 147 151V148.5L148 147L161.5 128L165.5 114.4M116.5 134.5L124 138L125.5 141.5L128 136.5C127.5 136.167 126.4 134.6 126 131C125.6 127.4 125.5 125.5 125.5 125L127.103 121.312M116.5 134.5C116.833 133.667 118.2 131 121 127C123.8 122.6 125.167 121.167 125.5 121L127.103 121.312M176 54.25V50C176.167 48.5 177 45.4 179 45C181 44.6 181.167 46.1667 181 47L180.763 52.7458M180.763 52.7458C181.335 52.5548 181.5 52.5 181.5 52.5L183.75 50.25M157 97L156.956 97.07M156.956 97.07L154.5 101L155 101.5L157 98L156.956 97.07ZM178 70.5C178 71.5 175.5 76.5 176.5 75.5C177.3 74.7 177.833 73.1667 178 72.5C178.333 71.5 179.1 69.3 179.5 68.5C179.9 67.7 179.667 67.8333 179.5 68L178.75 68.75M178 70.5C178 69.7 178.5 69 178.75 68.75M178 70.5V69.5L178.75 68.75M133.5 133.5L131.55 135.938M131.55 135.938L131.5 136C131.5 136.167 131.6 136.4 132 136C132.4 135.6 133.5 134.833 134 134.5C134.167 134.167 134.4 133.5 134 133.5C133.6 133.5 133.167 133.5 133 133.5L131.55 135.938ZM57.9999 83.5L56.9999 88.5C56.9999 88.5 57.6999 87.2 60.4999 82L64.4999 89.5V81.5L65.4999 84.5L65.9999 85M57.9999 83.5C57.4999 84.3333 56.2999 86.1 55.4999 86.5C54.9383 86.7808 53.5227 88.0635 52.3251 89.2067M57.9999 83.5L59 82V80C58.1667 80.8333 55.665 83.8413 52.3251 89.2067M54.4999 82L50.9999 90.5C51.3476 90.1523 51.8167 89.6921 52.3251 89.2067M54.4999 82L49.9999 88.5C49.8332 87.3333 49.5999 84.8 49.9999 84C50.3999 83.2 51.1666 82.3333 51.4999 82C50.8332 81.8333 49.1999 81.9 47.9999 83.5C47.2216 84.5378 46.2609 85.6317 45.5 86.4542M54.4999 82V81L50.5 87V86C51 85 52.2 82.6 53 81C53.8 79.4 53.6667 79 53.5 79C51.8333 79.8333 48.3 81.7 47.5 82.5C46.7 83.3 45.8333 85.4695 45.5 86.4542M48.4999 78.5C47.6666 79.8333 45.8999 82.5 45.4999 82.5C45.0999 82.5 44.6666 85.8333 44.4999 87.5C44.7342 87.2657 45.0878 86.8998 45.5 86.4542M48.4999 78.5L37.9999 90C37.9999 88.6667 38.2999 85.6 39.4999 84C40.6999 82.4 38.6666 84.6667 37.4999 86L32 88.2647M48.4999 78.5L46.5 80L43 80.5C41.5 80.6667 38.3 81 37.5 81C36.7 81 36.5 80.6667 36.5 80.5C37.3333 80.3333 39.1 80 39.4999 80C39.8998 80 40.6666 79.3333 41 79L43 76.5C43.5 76 44.8999 74.8 46.5 74H47C45.5 75.3333 42.3 78.2 41.5 79C40.5 80 42 79 43 78C43.8 77.2 45 76.6667 45.5 76.5V77L45 77.5L39.5 80.5C39.6667 80.5 40.4 80.4 42 80C44 79.5 45 80 46 79.5C46.8 79.1 47.9999 78.6667 48.4999 78.5ZM31.4999 85.5L29.4999 87L27.4999 91.5L28.9999 89.5L32 88.2647M31.4999 85.5L27.9999 87.5L20.6441 92.2597L20.2726 92.5M31.4999 85.5L32 85L30.5 84.5C29.3333 84.6667 26.8 85 26 85C25.2 85 27 84 28 83.5L30.5 83C31 82.8333 32.2 82.4 33 82C33.8 81.6 33.6667 81.5 33.5 81.5C32.5 81.1667 30.1 80.3 28.5 79.5C26.5 78.5 25.5 79.5 24.5 79.5C23.5 79.5 24 79 24.5 79L28 77.5L31 77L32.5 76.5C32.5 76.5 32.5 76.4 32.5 76C32.5 75.6 31.5 75.8333 31 76L27 77.5C27 77.5 26.9 77.5 26.5 77.5C26.1 77.5 26.3333 77.1667 26.5 77C27.5 76.3333 29.7999 75 31 75C32.2001 75 31.8334 74.6667 31.5 74.5C31.1667 74.3333 30.2 74.1 29 74.5C27.8 74.9 25.8333 77 25 78L22.5 79.5C22 79.8333 21.2 80.5 22 80.5C22.8 80.1 23 80 23 80H26L29 80.5L32 81.5C32.1667 81.6667 32.4 82 32 82C31.6 82 29.1667 82.6667 28 83L24.5 85C24.1667 85.1667 23.6 85.5 24 85.5C24.4 85.5 28.5 85.1667 30.5 85L31.4999 85.5ZM18.5 88.3568L20 91.2577M20 91.2577C19.7833 91.6236 19.6056 91.8943 19.4999 92C19.0999 92.4 19.3332 92.8333 19.4999 93L20.2726 92.5M20 91.2577C20.6036 90.2384 21.5094 88.4812 22 87.5C21.3333 87.8333 19.2 88.5 16 88.5C12.8 88.5 11.3333 88.5 11 88.5L14 88L17.5 84C17.5 84.1667 16.7 84.1 13.5 82.5C9.9 80.5 11 80.3333 12 80.5H14.5L17.5 79L18 78.5H17L11.5 75L13.5 75.5H15.5L21 72.5C18.8333 70.6667 14.9 67.2 16.5 68C18.1 68.8 21.5 69.6667 23 70H26.5L22.5 69L19.5 67.5L17.5 64L20.5 66H26L28.4999 65.5L26.5 62.8188L25.5 58L28.9999 62.5L28.4999 57L28.9999 54L30.4999 58L35.9999 62.5H36.4999L34.9999 61L40.4999 62L38.4999 59.5V56.5L42.4999 61V58L43.9999 52L46.9999 59L49.9999 62L48.4999 59L48.9999 55L54.4999 64L56.4999 57L55.9999 61.5L56.9999 63.5C56.8332 63.1667 56.7999 61.9 57.9999 59.5C59.1999 57.1 59.4999 56.5 59.4999 56.5V63.5L59.9999 66L58.4999 67.5C59.2999 67.9 60.4999 66.3333 60.9999 65.5L65.4999 58.5C65.8332 59 66.0999 60.6 64.4999 63C62.4999 66 61.4999 67 62.4999 66.5C63.4999 66 65.6898 64.0504 65.9999 62.5C66.4999 60 66.5887 60.2355 66.4999 60C67.6999 63 66.3332 66.3333 65.9999 68C65.9999 68.1667 65.7999 68.6 64.9999 69C64.1999 69.4 63.9999 69.5 63.9999 69.5C63.6666 69.6667 63.0999 70 63.4999 70C63.8999 70 63.9999 70 63.9999 70L68.4999 67C68.4999 67.1667 68.2999 67.8 67.4999 69C66.6999 70.2 65.4999 71.1667 64.9999 71.5H67.4999L73.9999 69.5C74.1666 69.8333 73.8999 71.1 71.4999 73.5C69.0999 75.9 70.1666 75.1667 70.9999 74.5L71.4999 74L70.9999 75.5L68.9999 78L72.4999 80C72.6666 80.1667 73.2999 80.4 74.4999 80C75.6999 79.6 74.6666 80.8333 73.9999 81.5L71.4999 83L73.9999 86.5L69.4999 85.5L70.9999 88.5L68.4999 87.5L65.9999 85M66.5 95.5C67.3 93.9 66.8333 92.1667 66.5 91.5L65.9999 85M66.5 95.5L67.5 96V97V100.5L65 104.5M66.5 95.5C65.801 95.8495 65.3055 98.5151 65.0804 100.294M22 96C21.5 96.5 21.5 96.5 21 97.5C20.6 98.3 21.1667 99.8333 21.5 100.5C21.6667 101 22 102.1 22 102.5C22 102.9 22 104 22 104.5C22.3333 105 23.4 106.4 25 108L27 109.5L29.5 109C29.6667 108.833 30.1 108.9 30.5 110.5C30.9 112.1 31.6667 114.833 32 116C38.5 121 41.101 123.53 47.5 127.5C47.8333 127.667 48.7 128 49.5 128C50.3 128 52.1667 127.333 53 127L63 112L64 108.5L65 105.5V104.5M22 96C22.4 95.6 21.0151 93.5 20.2726 92.5M22 96C22.1667 95.8333 22.6 95.5 23 95.5C23.4 95.5 24.8333 96.5 25.5 97L26 97.5V98V98.5H26.5V97.5L27 98L27.9999 101.5L28 102.5C28.1667 102.167 28.5 101.7 28.5 102.5C28.5 103.3 28.5 104.167 28.5 104.5L30 105L29.5 104V103.5L29 102.5L29.5 101.5C29.6667 100.667 29.9 98.8 29.5 98C29.1 97.2 29.6667 96.6667 30 96.5V95L31 94.5L32 88.2647M34.5 96C31.5001 95 33 95.5 35.5 95.5C37.1 95.5 39.8333 96.5 41 97L35.5 91.5L36 91C38.4407 93.6622 40 95 43 96.5L46.5 98.5C47 99 48.5 100.5 48.5 100.5L50 99.5L47.5 93.5L48.5 93C49.3333 94.5 51 97.7 51 98.5C51 99.3 51 99.5 51 99.5L49 101L47.5 101.5V102.5C47.3333 102.667 46.9 103 46.5 103C46.1 103 45.6667 102.333 45.5 102C45.5 102.333 45.4 103.2 45 104C44.9731 104.054 44.9476 104.093 44.9235 104.119M34.5 96C36.8999 96.8 41.5 98.3333 43.5 99C43.8333 99 44.5 99.2 44.5 100C44.5 100.227 44.5 100.608 44.5058 101.051M34.5 96C34.5 97.2 34.5 97.5 34.5 97.5M34.5 97.5H36L38.5 98C39.1667 98.1667 40.8 98.6 42 99C43.2 99.4 44.1706 100.534 44.5058 101.051M34.5 97.5C34.1 97.9 34.3333 99 34.5 99.5M44.5058 101.051C44.5244 102.453 44.6016 104.468 44.9235 104.119M34.5 99.5C34.5 99.8333 34.6 100.8 35 102C35.4 103.2 36.1667 104.5 36.5 105C36.6667 105.167 37.2 105.5 38 105.5C38.8 105.5 42 105.5 43.5 105.5M34.5 99.5L34 100.5L34.5 102.5C35 103.333 36.1 105.1 36.5 105.5C36.9 105.9 37.6667 106 38 106H42L43.5 105.5M43.5 105.5L44.9235 104.119M54.5 104.119V102.5L53.5 101.5L53 102.5C53.1667 101.833 53.6 100.3 54 99.5C54.4 98.7 54.8333 98.5 55 98.5L59 95L64 91L63 92.5L61.5 94L60.5 95.5L64 95L63.384 95.2053M54.5 104.119L55 103.5L55.5 102C55.5 101.667 55.6 100.8 56 100C56.4 99.2 59.5 97 61 96M54.5 104.119C54.9 105.224 55.3333 105.5 55.5 105.5M61 96L63.384 95.2053M61 96L57 99.5L59.5 98L63.5 96.5M102 128C102 128 103 127.5 103 125.5C103 123.5 101.5 123.5 101 121.312V113.5L100.5 110C101.333 108.333 103.1 104.5 103.5 102.5C104 100 104 93.5 103.5 93.5M102 128C101.833 127.5 101.4 126.5 101 126.5C100.6 126.5 99.1667 128.5 98.5 129.5L97.5 131.5L103 141.5L105 145L114.5 154L114 145L116 141.5M102 128C103.667 131 107.3 137.2 108.5 138C108.761 138.174 109.106 138.383 109.5 138.61M103.5 93.5C103.1 93.5 104.333 92.1667 105 91.5L108 92.5M103.5 93.5C105.5 94.5 105.5 94.5 106 95C106.4 95.4 106.5 97.5 106.5 98.5H107V97C107 96.1667 106.9 94.5 106.5 94.5C106.1 94.5 104.667 93.5 104 93L105 92L108 92.5M108 92.5L110.5 98L109.5 101.5L110 111.5L112 113L119.5 102.5L124 96.5L127 90.5L131.5 86C132.667 86.1667 135 86.7 135 87.5C135 88.3 134.667 88.5 134.5 88.5L132.5 88C132 88.3333 130.9 89.2 130.5 90C130.1 90.8 130 91 130 91C129.833 91.3333 129.6 91.9 130 91.5C130.4 91.1 131.833 89.6667 132.5 89H134.5C134.667 89.1667 134.9 89.5 134.5 89.5C134.1 89.5 130.667 95.5 129 98.5V99.5L127.5 101.5L127.103 102.5L125 107L125.5 110L126 106.5L129 100.5L130 98.5L134 93L138.5 89L140.766 88.5M140.766 88.5L143 90.5C143.167 90.6667 143.3 91.2 142.5 92M140.766 88.5C141.177 89 142.1 90.1 142.5 90.5C142.9 90.9 142.667 91 142.5 91L140.766 90.1719C140.177 90.7813 138.8 92.2 138 93C137.2 93.8 137.667 93.6667 138 93.5C138.922 92.7497 140.812 91.1992 141 91C141.188 90.8008 142.078 91.5837 142.5 92M142.5 92C141.7 92.8 137.5 98.6667 135.5 101.5C134 103 130.9 106.5 130.5 108.5C130 111 130.5 110.5 130 112.5M130 112.5C129.6 114.1 128.167 115.5 127.5 116L125.5 120.5L118.5 130L114 137.5L116 141.5M130 112.5L126.5 114.5L114 131V133.5L109.5 138.61M116 141.5L114 141C112.957 140.478 110.914 139.427 109.5 138.61M115 35.5C114.991 35.5181 114.985 35.5382 114.981 35.5596M114.981 35.5596C114.951 35.7351 115.118 36 116 36C116.99 36 117.412 36 117.5 36L114.981 35.5596ZM63.5 96.5L63.384 95.2053M63.5 96.5V99.5M55.5 105.5C56 105.667 57 106 58 106C59 106 60 105.667 60.5 105.5L61.5 104.5L62.5 102.5L63.5 100.5V99.5M55.5 105.5C55.6667 105.55 56.3 105.621 57.5 105.5C58.7 105.379 59.6667 105.116 60 105L61.5 104L62.5 102C62.6667 101.333 63.1 99.9 63.5 99.5M65 104.5V101C65.021 100.79 65.0479 100.551 65.0804 100.294M65.0804 100.294L66.5 98L67 97L66 98L65.0804 100.294ZM53.5 89.2067L56.9999 86.5M50.9999 91L56.5 88M116.5 55L113 56.5M116 56.5L113.5 57M116 57.5L114.148 57.8139M91.9999 38.5C91.9999 40.6479 91.4999 43 91.9999 44C92.3999 44 92.4999 44 92.4999 44C91.9999 42 92.4999 40.6479 92.4999 38.5H91.9999ZM109 49.5C108.833 49.3334 108.5 48.9 108.5 48.5C108.5 48.1 108.5 47 108.5 46.5L109.5 42.5L110.5 42C110.114 42.1928 110.5 44 110 46.5L109 49.5ZM96.4999 52.5C96.3332 52.5 95.9999 52.6 95.9999 53C95.9999 53.4 95.9999 53.5 95.9999 53.5C95.9999 53.6667 96.4999 54 96.6927 53.83L97.4999 53.5V53C97.4999 52.8333 97.3999 52.5 96.9999 52.5H96.4999ZM108.5 56C109 57.5 108.5 60 108.5 60C108.333 58.8333 108 56.4 108 56C108 55.6 108.333 55.8333 108.5 56ZM105.5 60.5C105.667 61 106.2 62 107 62C107.8 62 108.333 61.1667 108.5 61C107.284 61.9136 105.985 61.4561 105.5 60.5ZM109.5 64H107.5C108 63.5 109 63 109.5 63.5V63.75V64ZM178 77C180.8 72.6 182.5 69.8333 183 69H182.5L180 72L178 77ZM154.5 99L156 96H156.5V97L154.5 99ZM157 100L154.5 103.5L155 104C155.667 103.333 157 101.8 157 101C157 100.2 157 100 157 100ZM154 107C155 105.167 157 101.7 157 102.5C157 103.3 156 104.833 155.5 105.5L154 107ZM152.5 111L156 106.5L156.5 107C155.833 108.167 154.3 110.6 153.5 111C152.7 111.4 152.5 111.167 152.5 111ZM159.5 77L159 77.5C159.333 78 160 79.1 160 79.5C159.6 81.5 159.833 82.3333 160 82.5C160 82.5 160.548 81.5 160.5 80C160 78.5 160 77 159.5 77ZM151.5 117.5C150.5 119.667 147.6 124.8 144 128C139.5 132 139 129.5 138 131.5C137.2 133.1 134.667 135.167 133.5 136H135C135 135.667 135.8 134.5 139 132.5C142.2 130.5 145.667 127 147 125.5L152 118.5L151.5 117.5ZM81.9999 52.5L81.4999 54L83.4999 56.5L83.9999 58L83.4999 58.5L81.4999 57.5L78.9999 53.5L79.9999 49.5C79.9999 49.3333 79.8999 49 79.4999 49C79.0999 49 78.9999 49.3333 78.9999 49.5C78.6666 50.3333 77.9999 51.8 77.9999 51C77.9999 50.2 78.3332 49 78.4999 48.5C78.6666 48.1667 79.0999 47.6 79.4999 48C79.9999 48.5 80.4999 49 80.4999 49.5C81.2999 51.1 81.8332 52.1667 81.9999 52.5ZM83.717 52.8328C83.5721 52.6104 83.4539 52.2991 84.141 52.8328C84.8281 53.3666 84.9999 53.5 84.9999 53.5C85.4275 54.0557 86.0262 54.9337 84.9999 54L83.717 52.8328ZM83.9999 53.5L84.9999 54.5C85.1666 54.6667 85.3999 55 84.9999 55C84.5999 55 83.978 54.3333 83.717 54C83.4999 53.5 83.9999 53.5 83.9999 53.5ZM81.4999 34.5L84.9999 39H83.9999L81.4999 34.5ZM92.9999 25L93.4999 24.5L96.9999 31.5L96.4999 32L92.9999 25ZM102.5 23L103 22.5C104.333 26.3333 106.9 34 106.5 34C106.1 34 103.667 26.6667 102.5 23ZM106.5 23.5L105 24C105.5 25.6667 106.5 29.3 106.5 30.5C107.3 32.9 106.833 26.8333 106.5 23.5ZM84.9999 28.5L84.4999 30C85.4999 33.3334 87.5999 39.7001 87.9999 38.5C88.3999 37.3 86.1666 31.3333 84.9999 28.5ZM118 29C118.333 28.6667 118.9 28.4 118.5 30C118.1 31.6 118 32.3333 118 32.5V29ZM48.9999 69L42.4999 63L45.4999 69C45.4999 69.1667 45.4 69.5 45 69.5C44.6 69.5 40.8333 68.1667 39 67.5C38.6667 67.3333 38.1 67.1 38.5 67.5C38.9 67.9 40.3333 68.6667 41 69L44.5 70H46C46.1667 70 46.5 69.9 46.5 69.5C46.5 69.1 44.8333 66.6667 44 65.5V65L46 66.5L48.9999 69.5V69ZM35 70.5C32.124 70.0001 30.5948 69.3163 28 67.5C27.8333 67.5 27.6 67.6 28 68C28.4 68.4 29.5 70.1667 30 71L33.5 73C34 73.1667 35 73.4 35 73C35 72.6 32.3333 71.5 31 71L28.9999 69L31 70C32 70.5 34.1 71.4 34.5 71L35 70.5ZM22.5 99.5L22 99V97.5C22.1667 97.3333 22.6 97 23 97C23.4 97 25.1667 99.3333 26 100.5C25.8333 100.5 25.5 100.6 25.5 101C25.5 101.5 25.5 102 26.5 102.5C26.9 102.5 27.3333 103.5 27.5 104C27.5 104.333 27.6 105.1 28 105.5C28.5 106 29.5001 106.5 28.5 106.5C27.6999 106.5 25.8333 105.5 25 105L24 104L23 101C23 100.167 23.2 98.6 24 99C24.8 99.4 23.6667 98.1667 23 97.5L22.5 99.5ZM119 121L124 113.5H124.5L119.5 121H119ZM104.5 121.5V123C104.667 123.333 105 124.1 105 124.5C105 124.9 104.333 125 104 125L104.5 124L104 123V121.5H104.5ZM112.5 38L115 37C115.333 36.8333 116.1 36.5 116.5 36.5C116.9 36.5 117.333 36.5 117.5 36.5V37L112.5 38ZM116 38.5C116.4 39.7 116.5 41.3333 116.5 42H117C117.167 41.5 117.4 40.3 117 39.5C116.6 38.7 116.167 38.5 116 38.5ZM110.5 43L113.477 42C114.152 41.6667 115.1 41.2 113.5 42C111.9 42.8 110.833 43 110.5 43ZM43 119C47.6201 118.06 50.3761 117.874 55.5 118C54.7 118.4 49.5 118.5 47 118.5L43.5 119.5L43 119ZM46.5 121C48.8458 120.863 50.16 120.668 52.5 120C52.5 120.391 52.5 120.609 52.5 121C52.1667 121.5 51.3 122.5 50.5 122.5C49.7 122.5 49.1667 122.5 49 122.5L46.5 121.5V121ZM48 104.119L46.5 107.5L46 109V110L48 112.5H48.5C49 111.833 50 110.4 50 110C50 109.6 49.6667 107.833 49.5 107L49 105L48 104.119ZM57.5 100C56.5 100.5 56.5 101 56.5 101V102C56.6101 102.305 56.5 102.5 57.5 103C57.6251 103.094 57.7862 103.114 58.5 103C58.8615 102.787 59.0781 102.589 59.5 102V101.5V100.5L59 100H57.5ZM40 99.5L38.5 100L38 101L38.5 102L40 103L41.5 102V101.5L41 100L40 99.5ZM53 113.5L52 114C51.8333 114.167 51.6 114.5 52 114.5C52.4 114.5 52.5 114.5 52.5 114.5C53 114.167 53.9 113.5 53.5 113.5H53ZM50.5 114C50.5 113.833 50.4 113.5 50 113.5C49.6 113.5 49.1667 113.833 49 114C49 114.167 49.1 114.5 49.5 114.5C49.9 114.5 50 114.5 50 114.5L50.5 114ZM39.5 107.5H36C35.6667 107.5 34.9 107.4 34.5 107C34.1 106.6 33.6667 106.167 33.5 106C33.3333 105.667 33 104.9 33 104.5C33 104.1 32.6667 102.333 32.5 101.5L33 101C33 101.5 33.1 102.7 33.5 103.5C33.9 104.3 35.3333 105.833 36 106.5L39.5 107.5ZM33.5 108.5L33 109C33.1667 109 33.8 109.3 35 110.5C36.2 112.1 36.5 112.5 36.5 112.5H38.5C36.2755 111.286 35.2138 110.408 33.5 108.5ZM33 110L32.5 110.5C32.6667 110.5 33.2 110.6 34 111C34.8 111.4 35 111.833 35 112V112.5L39 115V114.5C37.3522 113.559 36.4753 112.915 35 111.5L33 110ZM35 113.5V113C36.3333 113.833 38.9 115.5 38.5 115.5C38.1 115.5 37.6667 115.5 37.5 115.5L35 113.5ZM36.5 116.5C36.1667 116.667 35.6 117 36 117C36.5 117 39.5 118.5 38 117.5C36.8 116.7 36.5 116.5 36.5 116.5ZM36.5 118C36.6667 118.167 37.3 118.6 38.5 119C39.7 119.4 40 119.167 40 119L36.5 118ZM64 101.5C64 101.833 63.9 102.7 63.5 103.5C63.1 104.3 62.3333 104.833 62 105L59 106.5H61.5C62 106.5 63 106.5 63.5 106C63.9 105.6 64 105.167 64 105V101.5ZM54.4999 91C56.1666 90 59.3 88 58.5 88C57.7 88 55.4999 90 54.4999 91ZM59.5 89.5C56.5 90.5 56.5 91 56.5 90.5C56.5 90.1 56.8333 90 57 90L59.5 89.5ZM53 94L57.5 90.5L58 91L53 94ZM58 92.5L55 94V94.5H55.5L58 92.5ZM54 96L57 94V94.5L54 96ZM54.5 97C55 96.5 56.1 95.5 56.5 95.5C56.9 95.5 57 95.5 57 95.5L54.5 97ZM63 106.5C60.5 108.5 59.5 109 60.5 108.5C61.3 108.1 62.1667 107.667 62.5 107.5C62.9881 107.152 63.0098 106.927 63 106.5ZM59.5 110.5C62.5 108 63.5 106.5 63 107.5C62.6 108.3 60.5 109.833 59.5 110.5ZM62.5 109L61 110.5H61.5L62.5 109ZM62 110.5C60.4 112.5 60 113 60 113H60.5L62 110.5ZM59.5 115.5C59.8691 114.863 60.6858 113.671 61 114C61.3142 114.329 60.1309 115.137 59.5 115.5ZM112.5 45C112.333 45.3333 112.5 45.8 114.5 45C116.5 44.2 117.158 43.6667 117.237 43.5L112.5 45Z" stroke="#FF0000" stroke-width="0.5"/>
</svg>
